{"glyphs":{":":{"x_min":0,"x_max":233,"ha":233,"o":"m 217 416 q 217 400 211 383 q 206 366 194 352 q 183 338 166 329 q 149 320 127 320 q 96 320 82 335 q 68 350 68 375 q 68 391 74 407 q 81 424 93 438 q 104 452 121 460 q 138 469 159 469 q 188 469 203 454 q 217 439 217 416 z m 171 82 q 171 65 166 48 q 160 31 148 17 q 136 3 119 -6 q 103 -15 81 -15 q 50 -15 36 0 q 21 16 21 41 q 21 56 28 73 q 34 89 46 103 q 58 117 75 126 q 92 135 113 135 q 142 135 157 120 q 171 105 171 82 z"},"$":{"x_min":0,"x_max":455,"ha":455,"o":"m 151 464 q 151 453 153 443 q 156 433 163 423 q 170 414 182 404 q 194 395 213 385 l 235 542 q 216 539 201 532 q 185 524 174 514 q 163 503 157 490 q 151 478 151 464 z m 314 167 q 314 194 300 215 q 285 235 251 254 l 224 58 q 267 65 291 94 q 314 123 314 167 z m 442 559 q 444 557 442 550 q 440 542 435 531 q 431 520 424 507 q 418 494 412 483 q 405 472 400 464 q 394 456 391 454 l 363 458 q 355 484 338 506 q 320 527 291 537 l 266 361 q 301 346 328 330 q 355 314 374 296 q 393 278 402 255 q 412 233 412 204 q 412 166 399 131 q 387 96 362 68 q 337 39 300 19 q 263 -1 214 -10 l 207 -64 q 198 -71 186 -77 q 174 -83 162 -86 l 148 -72 l 156 -15 q 155 -15 153 -15 q 151 -15 150 -15 q 127 -15 101 -8 q 74 0 50 12 q 27 23 11 37 q -4 51 -4 64 q -4 69 -1 78 q 2 88 7 99 q 13 111 20 123 q 26 134 33 144 q 40 153 47 159 q 53 166 58 166 q 62 166 67 159 q 72 152 78 142 q 84 131 92 119 q 100 106 110 94 q 121 82 135 72 q 148 62 167 58 l 198 280 l 181 288 q 150 300 126 314 q 103 328 87 345 q 71 362 62 383 q 54 403 54 429 q 54 456 65 483 q 76 510 99 533 q 122 557 158 573 q 193 590 243 597 l 251 653 q 264 661 272 668 q 281 674 294 678 l 309 664 l 300 601 l 301 601 q 322 601 342 597 q 361 594 380 588 q 398 582 414 574 q 430 567 442 559 z"},"?":{"x_min":0,"x_max":429,"ha":429,"o":"m 253 82 q 253 65 247 48 q 241 31 229 17 q 218 3 201 -6 q 184 -15 162 -15 q 132 -15 117 0 q 103 16 103 41 q 103 56 109 73 q 116 89 128 103 q 140 117 156 126 q 173 135 194 135 q 224 135 238 120 q 253 105 253 82 z m 436 579 q 436 538 422 506 q 408 474 386 448 q 365 421 340 398 q 314 375 292 351 q 269 328 252 302 q 236 276 231 244 l 226 201 q 217 194 202 188 q 187 181 175 177 l 164 188 l 166 248 q 167 279 178 305 q 190 332 206 356 q 223 380 241 403 q 260 426 276 449 q 292 472 303 497 q 313 522 313 551 q 313 571 310 588 q 306 605 298 618 q 290 630 278 637 q 266 645 250 645 q 234 645 222 636 q 210 627 203 612 q 196 597 194 576 q 192 556 197 533 q 186 528 171 523 q 157 518 141 514 q 125 510 111 507 q 96 503 85 502 l 72 521 q 72 553 88 584 q 104 616 134 641 q 163 667 204 682 q 246 698 296 698 q 330 698 356 689 q 382 680 400 664 q 417 647 427 626 q 436 604 436 579 z"},"<":{"x_min":0,"x_max":432,"ha":432,"o":"m 416 434 l 392 371 l 146 277 l 370 183 l 378 162 q 367 152 353 139 q 340 127 325 118 l 40 237 l 28 257 q 30 263 33 271 q 37 279 40 287 q 43 295 47 303 q 50 311 53 316 l 403 449 z"},"'":{"x_min":0,"x_max":233,"ha":233,"o":"m 163 417 q 159 415 152 413 q 146 412 138 411 q 131 410 124 409 q 117 408 112 408 l 109 660 q 115 663 130 669 q 146 675 163 681 q 180 687 195 692 q 210 697 215 698 l 237 685 z"},"=":{"x_min":0,"x_max":432,"ha":432,"o":"m 410 368 q 408 363 404 355 q 400 347 396 339 q 392 331 388 324 q 384 316 382 312 l 53 312 l 41 328 q 42 333 46 341 q 50 348 54 356 q 58 364 62 371 q 66 378 69 383 l 397 383 z m 390 222 q 388 216 384 208 q 380 201 376 193 q 372 185 368 177 q 364 170 362 166 l 33 166 l 21 182 q 23 187 26 194 q 30 202 34 209 q 38 217 42 225 q 46 232 49 237 l 377 237 z"},"a":{"x_min":0,"x_max":481,"ha":481,"o":"m 285 185 q 288 205 291 229 q 295 252 299 275 q 302 297 306 318 q 309 339 312 354 q 298 367 282 377 q 267 388 251 388 q 231 387 214 377 q 197 368 183 352 q 170 335 160 315 q 149 294 143 271 q 136 249 133 227 q 129 205 129 185 q 129 158 133 137 q 137 117 144 103 q 150 90 159 83 q 167 76 177 76 q 192 76 221 104 q 249 132 285 185 z m 479 52 q 458 37 438 24 q 417 11 400 1 q 382 -9 368 -14 q 354 -20 346 -20 q 337 -20 327 -15 q 316 -9 307 4 q 297 18 290 40 q 282 62 280 97 q 264 75 246 54 q 229 33 209 17 q 190 0 170 -10 q 149 -20 130 -20 q 112 -20 93 -11 q 73 -1 57 19 q 41 39 30 71 q 19 103 19 149 q 19 188 28 224 q 38 261 57 295 q 75 329 102 358 q 129 388 164 411 q 177 420 193 428 q 209 437 227 443 q 245 449 265 453 q 285 457 305 457 q 326 457 345 448 q 365 438 382 428 q 399 436 416 443 q 432 450 445 457 l 460 425 q 452 418 447 413 q 441 408 437 401 q 433 394 430 383 q 427 373 424 356 q 417 321 411 288 q 405 255 401 228 q 396 200 395 179 q 393 158 393 147 q 393 114 400 92 q 407 70 418 70 q 428 70 440 73 q 451 76 471 84 z"},"L":{"x_min":0,"x_max":485,"ha":485,"o":"m 458 148 q 454 127 448 104 q 442 81 437 60 q 431 40 427 23 q 422 7 419 0 l -4 0 l 1 36 q 33 42 50 51 q 66 59 67 65 l 134 549 q 135 555 121 564 q 107 573 76 580 l 81 615 l 318 615 l 313 580 q 282 573 265 564 q 248 556 247 549 l 184 94 q 183 85 186 78 q 189 72 198 67 q 207 63 223 61 q 239 59 264 59 l 314 59 q 335 59 350 64 q 365 69 378 81 q 390 93 402 113 q 413 132 427 161 z"},"3":{"x_min":0,"x_max":455,"ha":455,"o":"m 409 489 q 409 462 401 440 q 392 417 377 398 q 362 379 341 365 q 321 351 297 341 q 322 338 341 326 q 360 314 372 296 q 385 278 391 256 q 397 233 397 209 q 397 163 379 122 q 360 82 328 51 q 296 21 253 3 q 210 -15 161 -15 q 144 -15 123 -10 q 103 -4 81 6 q 60 16 39 31 q 19 46 1 65 l 28 113 q 63 80 96 67 q 129 54 163 54 q 188 54 209 64 q 231 75 246 93 q 262 112 271 138 q 279 164 279 196 q 279 221 273 240 q 267 258 255 270 q 244 282 228 288 q 213 293 195 293 l 186 293 q 182 293 178 293 q 174 292 170 292 q 166 292 159 290 l 156 334 q 221 351 257 386 q 293 422 293 481 q 293 512 282 529 q 270 546 244 546 q 231 546 220 541 q 209 535 201 525 q 193 515 189 500 q 185 486 186 468 q 176 462 163 457 q 149 451 135 446 q 121 441 106 438 q 92 435 82 434 l 70 464 q 72 478 80 493 q 89 509 103 524 q 116 540 135 554 q 153 568 175 579 q 196 590 221 596 q 245 603 271 603 q 311 603 337 594 q 363 584 379 568 q 396 552 402 531 q 409 511 409 489 z"},";":{"x_min":0,"x_max":233,"ha":233,"o":"m 218 416 q 218 400 212 383 q 207 366 195 352 q 184 338 167 329 q 150 320 128 320 q 97 320 83 335 q 68 350 68 375 q 68 391 75 407 q 81 424 93 438 q 105 452 122 460 q 139 469 160 469 q 189 469 204 454 q 218 439 218 416 z m 183 57 q 183 37 176 14 q 169 -8 157 -31 q 145 -55 128 -77 q 112 -100 94 -120 q 76 -140 58 -156 q 39 -172 22 -182 l -6 -158 q 31 -118 50 -79 q 69 -40 69 -11 q 69 -2 66 7 q 62 16 56 23 q 49 30 39 34 q 29 38 14 36 l 12 74 q 18 79 28 84 q 38 90 51 96 q 63 102 78 107 q 92 113 105 117 q 119 121 130 124 q 141 126 148 126 q 157 122 164 116 q 170 110 174 102 q 179 94 181 83 q 183 72 183 57 z"},"J":{"x_min":0,"x_max":312,"ha":312,"o":"m 334 580 q 304 573 286 564 q 269 556 268 549 l 208 100 q 200 45 185 7 q 169 -32 150 -59 q 130 -87 109 -106 q 87 -125 67 -141 q 54 -151 37 -161 q 20 -170 1 -178 q -17 -185 -35 -189 q -54 -193 -68 -193 q -86 -193 -104 -188 q -121 -183 -135 -176 q -148 -168 -157 -161 q -166 -153 -166 -147 q -166 -144 -160 -136 q -155 -129 -147 -121 q -139 -112 -129 -103 q -120 -94 -110 -86 q -101 -79 -93 -74 q -85 -69 -81 -69 q -76 -69 -69 -75 q -62 -82 -52 -90 q -42 -98 -29 -105 q -17 -111 -1 -111 q 10 -111 23 -105 q 36 -99 48 -81 q 60 -62 70 -27 q 81 8 89 65 l 155 549 q 156 552 153 556 q 150 559 141 563 q 132 567 116 571 q 101 575 74 580 l 79 615 l 340 615 z"},"V":{"x_min":0,"x_max":608,"ha":608,"o":"m 655 580 q 623 573 605 567 q 587 561 581 547 l 341 40 q 336 29 325 21 q 313 12 300 5 q 286 -2 271 -7 q 257 -12 245 -15 l 117 547 q 114 560 101 568 q 89 576 61 580 l 65 615 l 296 615 l 292 580 q 255 577 242 569 q 229 562 233 548 l 323 139 l 514 547 q 520 562 508 568 q 497 575 460 580 l 465 615 l 660 615 z"},"\"":{"x_min":0,"x_max":435,"ha":435,"o":"m 163 417 q 159 415 152 413 q 146 412 138 411 q 131 410 124 409 q 117 408 112 408 l 109 660 q 115 663 130 669 q 146 675 163 681 q 180 687 195 692 q 210 697 215 698 l 237 685 z m 345 417 q 341 415 335 413 q 328 412 321 411 q 314 410 307 409 q 300 408 294 408 l 292 660 q 298 663 313 669 q 328 675 345 681 q 362 687 377 692 q 393 697 398 698 l 419 685 z"},"7":{"x_min":0,"x_max":455,"ha":455,"o":"m 474 570 q 446 517 418 464 q 391 410 365 358 q 339 307 315 258 q 291 209 271 166 q 250 123 233 87 q 217 51 206 25 q 197 19 184 13 q 170 7 156 2 q 141 -3 126 -7 q 112 -12 100 -15 l 81 5 q 113 55 141 99 q 169 144 194 185 q 219 226 241 265 q 263 304 284 342 q 305 380 326 419 q 347 458 369 500 l 164 500 q 157 500 150 498 q 142 497 133 489 q 124 481 113 466 q 102 450 88 421 l 59 434 q 62 445 67 466 q 73 488 80 511 q 86 535 92 556 q 98 577 103 588 l 461 588 z"},"S":{"x_min":0,"x_max":476,"ha":476,"o":"m 470 585 q 472 583 469 576 q 467 569 463 559 q 458 549 451 537 q 445 525 438 515 q 432 505 426 497 q 420 490 417 488 l 388 491 q 382 511 372 526 q 361 542 349 552 q 336 562 322 567 q 308 572 293 572 q 268 572 250 564 q 231 557 219 545 q 208 533 202 517 q 196 502 196 486 q 196 475 199 463 q 203 452 213 439 q 224 426 244 412 q 264 397 296 381 q 335 361 363 342 q 391 324 409 304 q 427 284 435 261 q 444 239 444 211 q 444 166 424 125 q 404 83 369 52 q 334 21 287 3 q 240 -15 186 -15 q 169 -15 150 -12 q 130 -9 111 -4 q 92 1 74 8 q 56 15 42 24 q 29 32 21 42 q 12 51 12 60 q 12 65 16 74 q 20 83 26 93 q 32 103 40 114 q 47 125 55 133 q 63 142 70 148 q 78 153 83 153 q 88 153 94 146 q 101 139 110 128 q 118 117 129 104 q 140 91 154 80 q 167 69 184 62 q 201 54 222 54 q 246 54 266 62 q 287 70 302 84 q 318 98 327 119 q 336 139 336 165 q 336 186 329 204 q 322 222 306 239 q 290 256 264 272 q 239 288 202 306 q 169 321 148 338 q 127 354 115 373 q 104 391 99 411 q 94 431 94 453 q 94 485 110 517 q 126 549 157 574 q 188 599 230 614 q 273 630 326 630 q 372 630 409 616 q 446 603 470 585 z"},"}":{"x_min":0,"x_max":335,"ha":335,"o":"m 294 311 q 241 295 214 269 q 187 243 182 206 q 178 179 178 159 q 178 140 179 122 q 181 104 181 84 q 181 64 177 37 q 172 3 155 -24 q 137 -52 110 -75 q 83 -99 48 -118 q 13 -138 -27 -154 l -40 -116 q -1 -92 25 -60 q 52 -28 57 9 q 60 34 60 54 q 60 74 59 93 q 59 111 58 131 q 58 151 62 177 q 64 197 74 217 q 83 236 97 254 q 112 271 130 285 q 148 299 168 308 q 124 317 107 351 q 91 385 98 439 q 102 466 108 488 q 114 511 120 531 q 126 552 132 572 q 137 592 140 613 q 143 633 143 650 q 142 667 136 681 q 130 695 117 709 q 104 722 82 736 l 105 781 q 145 765 175 747 q 205 730 224 709 q 244 688 251 661 q 259 635 254 600 q 250 574 245 553 q 239 532 233 512 q 227 492 221 470 q 215 449 212 421 q 206 382 220 365 q 233 349 262 349 l 271 349 q 274 349 277 349 q 279 349 282 350 q 286 350 292 352 z"},"Z":{"x_min":0,"x_max":520,"ha":520,"o":"m 156 63 l 363 63 q 373 63 381 71 q 390 78 399 93 q 408 108 418 131 q 429 154 441 184 l 479 174 q 476 158 472 134 q 468 110 464 85 q 459 60 456 37 q 452 14 450 0 l 21 0 l 8 26 l 383 553 l 206 553 q 198 553 188 544 q 178 536 167 521 q 155 506 145 485 q 134 463 125 438 l 87 447 l 128 625 q 140 621 150 619 q 160 617 169 616 q 179 616 189 615 q 200 615 213 615 l 517 615 l 528 590 z"},"x":{"x_min":0,"x_max":462,"ha":462,"o":"m 454 50 q 433 35 413 22 q 393 10 375 0 q 357 -9 341 -15 q 326 -20 313 -20 q 300 -20 286 -8 q 272 5 259 26 q 246 47 233 75 q 220 104 207 134 q 188 108 164 75 q 141 42 115 2 q 106 1 89 -1 q 72 -4 54 -7 q 36 -11 19 -14 q 2 -18 -7 -20 l -21 1 q 0 20 26 43 q 52 67 79 94 q 106 120 132 147 q 159 174 181 199 q 168 233 155 265 q 142 296 130 321 q 117 345 105 360 q 94 375 83 375 q 79 375 68 373 q 58 371 47 368 q 35 365 20 362 l 10 396 q 30 406 53 417 q 75 428 95 437 q 116 446 132 451 q 148 457 156 457 q 168 457 182 442 q 195 428 208 403 q 222 379 236 347 q 250 315 263 281 q 279 301 293 320 q 307 338 316 353 q 326 368 332 378 q 337 388 337 391 q 337 401 326 406 q 314 410 283 407 l 280 441 q 296 445 315 448 q 334 450 352 452 q 371 455 386 456 q 402 457 413 457 q 441 457 453 449 q 465 441 465 431 q 465 413 420 361 q 375 310 288 220 q 300 189 312 162 q 324 134 336 113 q 348 91 358 79 q 369 66 379 66 q 391 66 407 70 q 424 73 442 83 z"},")":{"x_min":0,"x_max":309,"ha":309,"o":"m 266 310 q 254 230 228 158 q 202 86 164 26 q 126 -34 77 -80 q 28 -126 -28 -154 l -47 -117 q -14 -90 15 -52 q 45 -14 70 37 q 95 88 114 153 q 132 217 144 295 q 154 366 155 432 q 157 498 149 555 q 141 613 122 661 q 104 710 75 747 l 104 783 q 152 754 188 705 q 223 657 244 595 q 265 533 271 460 q 277 388 266 310 z"},"&":{"x_min":0,"x_max":631,"ha":631,"o":"m 281 552 q 277 526 280 499 q 283 472 291 443 q 314 458 330 473 q 347 489 358 506 q 369 522 375 539 q 380 555 383 571 q 388 605 376 625 q 364 645 342 645 q 330 645 319 638 q 309 630 302 618 q 294 605 289 588 q 284 571 281 552 z m 248 56 q 273 56 298 64 q 323 72 346 86 q 328 108 310 134 q 291 160 274 188 q 256 216 240 247 q 225 277 212 309 q 183 278 170 248 q 156 217 151 184 q 147 149 154 125 q 161 101 175 85 q 189 70 208 63 q 228 56 248 56 z m 668 365 q 662 358 654 349 q 646 340 638 331 q 630 323 623 315 q 615 308 609 304 q 594 312 575 319 q 557 326 542 327 q 549 313 550 297 q 550 282 548 263 q 543 230 525 194 q 507 158 478 124 q 485 115 493 106 q 500 98 508 91 q 528 70 552 64 q 577 59 600 65 l 603 29 q 582 20 560 12 q 537 4 517 -2 q 498 -8 483 -11 q 468 -15 463 -15 q 452 -15 432 0 q 411 15 385 42 q 346 16 302 1 q 258 -15 211 -15 q 164 -15 127 -2 q 91 10 68 33 q 45 57 36 92 q 27 127 33 173 q 40 225 78 276 q 115 328 188 379 q 178 417 175 453 q 171 489 176 524 q 181 563 200 597 q 218 631 246 656 q 273 680 308 694 q 342 708 378 708 q 413 708 436 698 q 459 688 473 671 q 486 654 491 633 q 496 611 492 587 q 489 562 473 535 q 458 509 434 484 q 411 459 382 437 q 354 414 325 396 l 310 387 q 333 330 366 275 q 400 221 436 174 q 458 208 463 243 q 466 264 463 281 q 459 297 451 309 q 443 321 431 327 q 420 333 407 333 l 396 351 q 398 354 404 359 q 410 364 416 370 q 423 375 429 380 q 436 385 440 387 l 658 387 z"},"_":{"x_min":0,"x_max":450,"ha":450,"o":"m 386 -80 q 385 -85 381 -93 q 378 -100 374 -108 q 370 -116 366 -123 q 362 -130 360 -135 l -3 -135 l -15 -118 q -14 -113 -10 -106 q -7 -99 -3 -91 q 1 -83 5 -76 l 13 -64 l 374 -64 z"},"v":{"x_min":0,"x_max":477,"ha":477,"o":"m 475 416 q 475 400 463 373 q 452 345 427 298 q 401 252 360 184 q 319 116 259 20 q 255 17 244 11 q 232 6 220 0 q 207 -6 195 -12 q 184 -18 179 -20 l 159 -1 q 154 40 146 89 q 137 137 128 184 q 120 230 111 270 q 102 309 95 331 q 91 344 87 352 q 83 360 78 364 q 73 369 69 370 q 64 371 60 371 q 55 371 47 369 q 40 368 32 365 q 23 363 12 359 l 0 392 q 21 402 45 414 q 68 425 90 435 q 111 444 128 451 q 146 457 153 457 q 167 457 176 443 q 185 429 195 395 q 199 382 205 359 q 210 335 216 306 q 221 276 227 245 q 233 214 238 187 q 242 160 245 140 q 249 121 249 114 q 283 167 303 209 q 324 250 336 280 q 348 309 352 327 q 355 346 355 353 q 355 376 329 376 q 320 376 312 375 q 304 373 293 369 l 283 401 q 298 409 320 419 q 341 429 363 438 q 385 446 404 452 q 423 458 435 457 q 452 457 463 448 q 475 439 475 416 z"},"O":{"x_min":0,"x_max":572,"ha":572,"o":"m 448 369 q 448 410 440 446 q 432 482 417 509 q 402 535 379 550 q 356 565 327 565 q 297 565 273 551 q 249 537 229 513 q 210 490 196 459 q 182 428 173 394 q 164 360 159 325 q 155 291 155 260 q 155 214 163 176 q 170 138 186 111 q 201 83 223 68 q 245 53 274 53 q 305 53 330 68 q 355 83 374 107 q 394 132 407 164 q 421 197 430 232 q 439 267 444 303 q 448 338 448 369 z m 564 378 q 564 343 558 308 q 551 272 539 237 q 527 203 509 170 q 491 138 469 110 q 449 83 423 61 q 397 38 369 21 q 340 4 309 -5 q 277 -15 245 -15 q 195 -15 156 5 q 118 25 91 59 q 64 94 51 140 q 37 186 37 237 q 37 273 43 308 q 49 343 60 376 q 71 410 87 440 q 103 470 123 497 q 143 524 168 549 q 193 573 222 591 q 252 609 286 619 q 320 630 359 630 q 411 630 450 610 q 488 590 514 555 q 540 521 552 475 q 564 429 564 378 z"},"(":{"x_min":0,"x_max":309,"ha":309,"o":"m 365 747 q 333 720 303 681 q 273 643 248 591 q 224 540 205 475 q 186 410 175 332 q 165 261 163 195 q 162 130 170 73 q 178 16 196 -32 q 214 -81 244 -117 l 215 -154 q 167 -125 131 -76 q 95 -28 74 33 q 53 95 47 167 q 42 239 53 317 q 64 397 90 469 q 116 542 154 602 q 192 663 241 709 q 290 755 347 783 z"},"C":{"x_min":0,"x_max":508,"ha":508,"o":"m 525 581 q 526 580 523 572 q 521 565 515 554 q 510 544 503 532 q 496 520 488 509 q 481 498 474 489 q 468 479 463 476 l 434 483 q 427 499 418 513 q 408 528 395 539 q 382 550 366 557 q 350 563 330 563 q 310 563 292 558 q 274 552 254 537 q 224 513 203 477 q 183 441 170 401 q 158 361 153 322 q 147 283 147 252 q 147 199 161 163 q 175 127 196 105 q 216 84 241 75 q 265 65 287 65 q 299 65 315 68 q 331 71 351 79 q 371 87 395 101 q 419 114 450 136 q 452 135 455 130 q 458 125 460 120 q 462 114 464 109 q 466 104 467 103 q 434 70 402 48 q 370 25 341 12 q 311 -1 284 -7 q 257 -13 234 -13 q 192 -13 155 3 q 118 19 90 49 q 62 79 46 123 q 30 167 30 224 q 30 270 40 318 q 49 365 69 410 q 89 456 119 496 q 149 537 190 570 q 208 583 230 595 q 251 606 275 614 q 298 622 322 626 q 346 630 369 630 q 393 630 417 626 q 440 622 461 615 q 481 609 498 600 q 515 591 525 581 z"},"W":{"x_min":0,"x_max":779,"ha":779,"o":"m 830 580 q 791 571 775 565 q 759 558 756 549 l 582 29 q 578 19 569 11 q 560 3 549 -2 q 538 -7 527 -10 q 516 -13 509 -15 l 415 428 l 231 29 q 227 18 217 11 q 208 3 196 -1 q 185 -6 174 -10 q 163 -13 154 -15 l 113 545 q 112 558 100 565 q 87 573 56 580 l 61 615 l 281 615 l 277 580 q 254 577 242 573 q 229 570 223 565 q 216 561 215 556 q 213 551 214 545 l 242 188 l 433 615 l 479 615 l 571 188 l 693 549 q 695 555 690 560 q 686 564 677 567 q 668 571 656 574 q 643 577 628 580 l 632 615 l 834 615 z"},"A":{"x_min":0,"x_max":583,"ha":583,"o":"m 181 209 l 119 69 q 113 54 127 47 q 141 41 178 36 l 173 0 l -24 0 l -20 36 q 12 42 29 48 q 46 54 53 69 l 281 588 q 293 598 307 607 q 321 615 336 622 q 351 629 365 634 q 379 639 391 643 l 502 69 q 503 62 506 57 q 509 51 514 47 q 520 43 529 41 q 539 38 553 36 l 549 0 l 324 0 l 329 36 q 364 38 378 45 q 392 53 389 69 l 362 209 z m 351 269 l 307 499 l 207 269 z"},"f":{"x_min":0,"x_max":321,"ha":321,"o":"m 496 682 q 486 674 469 661 q 453 648 437 635 q 420 623 406 614 q 392 604 386 604 q 378 604 370 614 q 363 623 354 634 q 346 645 336 654 q 326 663 313 663 q 292 663 278 643 q 264 624 255 595 q 245 565 240 531 q 234 496 231 465 l 228 442 l 350 442 l 363 425 q 358 418 348 408 q 339 398 328 389 q 318 379 308 372 q 298 364 293 361 q 288 375 273 379 q 257 383 226 383 l 221 383 l 188 94 q 182 41 160 -10 q 139 -60 109 -103 q 79 -146 43 -180 q 7 -215 -29 -237 l -49 -195 q -24 -182 -5 -154 q 15 -126 30 -90 q 45 -54 55 -13 q 64 28 69 68 l 105 383 l 37 383 l 26 402 l 90 442 l 112 442 q 117 481 126 517 q 135 553 149 585 q 164 618 186 646 q 208 674 239 697 q 265 716 293 729 q 321 742 351 742 q 375 742 398 734 q 421 725 440 714 q 459 704 474 694 q 489 684 496 682 z"},"Q":{"x_min":0,"x_max":586,"ha":586,"o":"m 448 369 q 448 410 440 446 q 432 482 417 509 q 402 535 379 550 q 356 565 327 565 q 297 565 273 551 q 249 537 229 513 q 210 490 196 459 q 182 428 173 394 q 164 360 159 325 q 155 291 155 260 q 155 214 163 176 q 170 138 186 111 q 201 83 223 68 q 245 53 274 53 q 305 53 330 68 q 355 83 374 107 q 394 132 407 164 q 421 197 430 232 q 439 267 444 303 q 448 338 448 369 z m 612 -61 q 598 -83 583 -100 q 568 -118 554 -131 q 540 -145 528 -152 q 517 -159 510 -159 q 489 -159 469 -152 q 448 -144 429 -132 q 409 -120 390 -104 q 371 -88 351 -72 q 332 -56 313 -40 q 293 -24 273 -13 q 267 -14 259 -14 q 252 -15 245 -15 q 195 -15 156 5 q 118 25 91 59 q 64 94 51 140 q 37 186 37 237 q 37 273 43 308 q 49 343 60 376 q 71 410 87 440 q 103 470 123 497 q 143 524 168 549 q 193 573 222 591 q 252 609 286 619 q 320 630 359 630 q 411 630 450 610 q 488 590 514 555 q 540 521 552 475 q 564 429 564 378 q 564 343 558 308 q 551 272 539 237 q 527 203 509 170 q 491 138 469 110 q 446 81 417 56 q 388 31 355 14 q 379 4 402 -10 q 424 -23 445 -35 q 465 -47 485 -55 q 505 -63 525 -63 q 531 -63 537 -62 q 542 -61 550 -57 q 558 -54 568 -47 q 578 -40 593 -29 z"},"w":{"x_min":0,"x_max":678,"ha":678,"o":"m 679 420 q 679 407 676 391 q 672 375 664 354 q 656 332 643 303 q 629 273 608 234 q 588 194 560 142 q 531 89 494 21 q 490 19 479 13 q 467 7 455 1 q 442 -6 430 -12 q 419 -18 414 -20 l 394 -1 q 389 40 383 80 q 377 121 372 157 q 366 194 360 225 q 354 256 347 278 q 343 261 333 235 q 324 208 310 175 q 295 143 277 105 q 258 67 235 27 q 231 24 219 18 q 206 11 192 3 q 177 -4 164 -11 q 151 -18 146 -20 l 127 -1 q 125 26 121 59 q 118 92 114 125 q 110 159 107 191 q 104 224 100 252 q 97 279 94 300 q 91 321 88 331 q 85 344 81 352 q 77 360 73 364 q 68 369 63 370 q 58 371 54 371 q 49 371 42 369 q 34 368 25 365 q 16 363 5 359 l -5 392 q 16 403 40 415 q 63 426 85 436 q 106 445 124 451 q 141 457 148 457 q 162 457 169 441 q 176 425 184 390 q 187 380 190 360 q 193 339 196 314 q 199 289 203 261 q 206 233 209 207 q 212 181 214 160 q 216 138 217 126 q 236 164 254 203 q 271 243 284 279 q 297 315 305 347 q 313 378 314 400 q 324 409 337 419 q 351 429 365 438 q 378 446 391 451 q 403 457 411 457 q 413 457 416 449 q 419 441 423 428 q 427 415 431 397 q 435 380 439 362 q 443 344 447 326 q 450 308 453 293 q 456 270 460 247 q 464 223 468 201 q 472 179 475 158 q 478 137 479 120 q 531 211 557 271 q 583 332 583 361 q 583 371 576 377 q 569 383 557 383 q 550 383 538 381 q 526 379 516 375 l 503 408 q 521 419 541 428 q 561 438 579 444 q 597 450 612 454 q 628 457 638 457 q 646 457 654 456 q 661 455 667 451 q 672 447 676 439 q 679 432 679 420 z"},"-":{"x_min":0,"x_max":332,"ha":332,"o":""},"E":{"x_min":0,"x_max":493,"ha":493,"o":"m 462 148 q 458 127 452 104 q 446 81 441 60 q 436 40 431 23 q 426 7 423 0 l -4 0 l 1 36 q 33 42 50 51 q 66 59 67 65 l 134 549 q 135 555 121 564 q 107 573 76 580 l 81 615 l 479 615 l 495 600 q 493 587 488 568 q 484 549 479 529 q 473 509 468 491 q 462 473 458 464 l 424 464 q 428 509 422 533 q 417 557 399 557 l 248 557 l 220 359 l 400 359 l 414 342 q 409 335 403 326 q 396 316 389 307 q 382 298 375 290 q 369 282 363 278 q 357 286 349 291 q 342 296 331 299 q 321 302 306 304 q 291 305 270 305 l 213 305 l 184 90 q 183 83 185 77 q 188 71 197 67 q 207 63 224 61 q 242 59 272 59 l 317 59 q 337 59 353 64 q 368 69 381 81 q 394 93 405 113 q 417 132 431 161 z"},"s":{"x_min":0,"x_max":384,"ha":384,"o":"m 385 412 q 376 401 366 388 q 355 375 345 363 q 334 352 326 344 q 317 336 312 336 q 304 336 295 347 q 285 357 273 369 q 261 381 247 391 q 232 401 215 401 q 188 401 173 387 q 159 374 159 350 q 159 327 179 310 q 199 293 239 273 q 259 263 278 250 q 297 238 313 223 q 328 207 337 187 q 347 167 347 141 q 347 119 337 98 q 328 77 312 59 q 295 42 274 27 q 253 12 230 2 q 207 -9 183 -14 q 159 -20 138 -20 q 106 -20 80 -12 q 53 -4 33 7 q 13 19 2 32 q -9 45 -9 55 q -9 62 -2 77 q 5 92 14 107 q 23 123 33 134 q 42 146 48 146 q 52 146 57 138 q 62 130 69 118 q 75 107 84 94 q 93 80 105 69 q 117 57 133 49 q 149 42 169 42 q 202 42 220 59 q 239 77 239 105 q 239 122 230 136 q 222 150 208 163 q 194 175 177 186 q 159 196 141 206 q 115 219 98 232 q 81 246 71 260 q 61 273 57 288 q 53 303 53 319 q 53 350 71 375 q 89 400 116 419 q 144 437 177 447 q 210 457 241 457 q 267 457 287 451 q 307 445 324 437 q 341 430 355 422 q 370 415 385 412 z"},">":{"x_min":0,"x_max":432,"ha":432,"o":"m 400 310 q 398 303 395 295 q 392 288 388 280 q 385 271 382 264 q 378 257 375 251 l 25 118 l 13 134 q 15 139 18 147 q 21 156 25 166 q 28 175 32 184 q 35 192 37 197 l 283 290 l 58 384 l 51 405 q 62 415 75 427 q 88 440 103 449 l 388 330 z"},"l":{"x_min":0,"x_max":267,"ha":267,"o":"m 252 54 q 229 39 204 25 q 180 12 157 2 q 134 -8 114 -14 q 94 -20 79 -20 q 65 -20 54 -5 q 43 9 43 38 q 43 50 47 78 q 50 106 56 145 q 62 183 69 229 q 76 275 84 323 q 91 371 99 418 q 106 465 112 506 q 117 547 121 579 q 124 611 124 628 q 124 639 122 646 q 120 652 116 656 q 113 659 108 660 q 104 661 99 661 q 95 661 87 658 q 79 656 71 654 q 62 651 52 647 l 43 681 q 63 690 90 701 q 117 711 143 721 q 168 730 189 736 q 210 742 220 742 q 233 742 241 733 q 250 725 250 702 q 250 683 246 651 q 243 619 237 578 q 231 537 224 490 q 217 444 209 396 q 201 349 194 302 q 187 256 181 217 q 175 177 172 146 q 168 116 168 99 q 168 83 173 76 q 178 70 186 70 q 197 70 210 74 q 223 78 245 86 z"},"8":{"x_min":0,"x_max":455,"ha":455,"o":"m 188 459 q 188 441 195 428 q 202 415 213 404 q 225 393 240 384 q 255 375 272 367 q 294 387 310 413 q 325 439 325 476 q 325 510 308 528 q 291 546 261 546 q 246 546 232 539 q 219 531 209 519 q 199 506 194 491 q 188 475 188 459 z m 300 167 q 300 191 293 209 q 286 228 274 241 q 262 255 246 265 q 229 275 212 285 q 195 270 181 253 q 167 237 156 218 q 146 200 140 179 q 135 158 135 134 q 135 113 141 96 q 146 80 156 69 q 166 57 179 51 q 193 45 208 45 q 229 45 246 56 q 263 67 275 84 q 288 101 294 123 q 300 145 300 167 z m 437 489 q 437 463 426 442 q 416 421 399 403 q 383 385 362 370 q 341 355 321 342 q 340 331 358 318 q 375 305 389 287 q 402 270 410 247 q 418 224 418 194 q 418 152 399 115 q 380 77 348 48 q 316 19 274 2 q 233 -15 188 -15 q 144 -15 111 -4 q 79 7 58 26 q 37 45 26 70 q 16 95 16 122 q 16 154 29 181 q 42 209 62 232 q 83 256 110 275 q 137 294 165 309 q 148 318 133 330 q 118 341 107 355 q 96 370 89 389 q 82 408 82 434 q 82 470 99 501 q 116 532 144 554 q 173 577 210 590 q 248 603 290 603 q 328 603 356 594 q 384 586 402 571 q 419 556 428 535 q 437 514 437 489 z"},"\\":{"x_min":0,"x_max":418,"ha":418,"o":"m 334 -164 q 329 -162 318 -158 q 306 -154 294 -149 q 281 -145 271 -140 q 260 -135 256 -132 l 67 767 l 89 781 q 96 779 106 775 q 117 772 129 768 q 140 763 151 759 q 161 754 167 750 l 355 -148 z"},"e":{"x_min":0,"x_max":422,"ha":422,"o":"m 195 360 q 170 332 155 296 q 140 260 137 212 q 186 234 214 251 q 243 269 257 285 q 272 300 276 315 q 281 330 281 346 q 281 368 271 380 q 261 391 247 391 q 243 391 237 389 q 230 387 223 383 q 216 379 208 373 q 201 367 195 360 z m 403 371 q 403 357 400 342 q 396 327 387 311 q 377 294 360 276 q 342 257 312 238 q 283 219 241 198 q 198 178 139 157 q 143 133 149 115 q 156 96 166 83 q 175 70 187 63 q 198 56 210 56 q 231 56 271 75 q 310 94 369 141 q 372 140 375 135 q 379 130 382 124 q 386 119 388 114 q 391 108 392 106 q 352 72 319 48 q 287 23 259 8 q 232 -7 209 -13 q 186 -20 164 -20 q 144 -20 119 -11 q 95 -2 73 18 q 52 38 38 70 q 23 102 23 148 q 23 186 33 221 q 42 256 59 288 q 77 319 101 348 q 125 376 156 402 q 167 412 183 421 q 199 431 218 439 q 236 447 256 452 q 276 457 295 457 q 323 457 344 449 q 364 442 377 430 q 390 417 396 402 q 403 387 403 371 z"},"b":{"x_min":0,"x_max":498,"ha":498,"o":"m 304 370 q 297 370 285 363 q 273 356 258 342 q 242 327 224 304 q 205 280 186 248 q 181 214 178 188 q 175 162 175 147 q 175 134 183 121 q 190 107 201 97 q 212 86 225 79 q 238 72 248 71 q 272 70 290 83 q 308 96 321 116 q 331 130 337 148 q 344 166 348 185 q 353 204 354 223 q 356 242 356 259 q 356 284 353 305 q 349 325 342 340 q 335 354 325 362 q 316 370 304 370 z m 471 298 q 470 246 449 193 q 428 140 391 92 q 374 70 353 50 q 332 29 306 14 q 281 -1 252 -11 q 224 -20 193 -20 q 177 -20 153 -9 q 130 3 108 22 q 86 41 71 66 q 56 91 56 117 q 56 130 59 156 q 62 181 66 215 q 71 249 77 288 q 83 328 89 368 q 96 409 102 449 q 108 489 113 524 q 118 559 121 586 q 124 613 124 628 q 124 639 121 646 q 119 652 115 656 q 111 659 106 660 q 102 661 98 661 q 93 661 86 658 q 78 656 71 654 q 62 651 53 647 l 44 681 q 66 692 94 703 q 121 713 146 722 q 172 731 192 737 q 213 742 222 742 q 238 742 244 733 q 250 725 250 702 q 250 681 245 643 q 240 605 233 557 q 227 510 218 457 q 209 403 201 352 q 226 384 248 405 q 271 425 291 437 q 311 448 328 453 q 346 457 359 457 q 383 458 403 447 q 423 437 438 416 q 454 396 462 366 q 471 336 471 298 z"},"%":{"x_min":0,"x_max":677,"ha":677,"o":"m 545 203 q 545 245 534 263 q 522 281 506 281 q 491 281 480 271 q 469 261 461 244 q 453 228 448 207 q 442 187 439 166 q 436 145 435 126 q 434 108 434 96 q 434 57 444 39 q 454 21 475 21 q 487 21 497 30 q 507 39 515 54 q 522 68 528 87 q 534 106 538 126 q 542 146 543 167 q 545 187 545 203 z m 638 195 q 638 158 626 121 q 614 83 591 53 q 568 22 534 3 q 500 -16 457 -16 q 430 -16 408 -6 q 387 4 371 21 q 355 38 346 60 q 338 83 338 107 q 338 145 350 182 q 363 220 386 250 q 410 280 445 299 q 479 318 523 318 q 548 318 569 309 q 590 301 605 285 q 621 269 629 246 q 638 223 638 195 z m 131 3 q 126 0 116 -3 q 107 -5 97 -8 q 86 -10 77 -12 q 67 -14 61 -15 l 52 0 l 547 585 q 552 588 561 591 q 570 593 581 596 q 591 598 600 600 q 610 602 615 604 l 625 589 z m 247 490 q 247 511 244 526 q 241 541 235 550 q 230 560 223 564 q 215 568 207 568 q 192 568 181 558 q 170 547 162 531 q 154 514 149 494 q 144 473 140 453 q 137 432 136 414 q 135 395 135 383 q 135 344 145 326 q 155 309 176 309 q 188 309 198 317 q 208 326 216 341 q 224 355 230 374 q 235 393 239 413 q 243 433 245 453 q 247 473 247 490 z m 339 482 q 339 445 327 408 q 315 370 292 340 q 269 310 235 291 q 202 271 158 271 q 131 271 109 281 q 87 291 72 308 q 56 325 48 347 q 39 369 39 394 q 39 431 52 469 q 64 506 88 536 q 111 566 146 585 q 180 604 224 604 q 249 604 270 596 q 291 587 306 571 q 322 555 330 533 q 339 510 339 482 z"},"m":{"x_min":0,"x_max":763,"ha":763,"o":"m 739 54 q 717 41 693 27 q 668 14 646 4 q 624 -7 604 -13 q 584 -20 571 -20 q 564 -20 557 -16 q 551 -12 545 -5 q 540 3 537 13 q 534 24 534 37 q 534 46 537 66 q 540 85 544 112 q 549 138 554 168 q 560 198 564 227 q 569 255 572 281 q 575 306 575 322 q 575 344 570 354 q 565 363 556 363 q 551 363 542 360 q 532 357 520 349 q 508 341 494 327 q 480 314 467 293 q 458 280 452 265 q 445 251 440 233 q 435 216 430 194 q 426 172 422 144 q 416 100 414 72 q 412 45 413 31 q 406 27 390 20 q 375 13 357 5 q 339 -2 323 -10 q 307 -17 301 -20 l 281 -1 q 292 48 302 98 q 311 148 318 191 q 325 234 329 268 q 333 302 333 320 q 333 343 328 353 q 323 363 312 363 q 308 363 300 360 q 291 357 279 349 q 267 341 253 328 q 239 314 225 294 q 216 281 209 267 q 202 252 197 234 q 191 215 187 193 q 182 171 178 144 q 170 100 168 72 q 166 45 167 31 q 160 27 144 20 q 128 13 111 5 q 93 -2 78 -10 q 62 -17 56 -20 l 37 -1 q 47 50 56 103 q 65 155 73 201 q 80 247 84 284 q 88 321 88 342 q 88 353 86 360 q 85 366 82 370 q 80 374 76 375 q 73 375 69 375 q 64 375 56 374 q 48 372 40 369 q 31 366 21 363 l 13 396 q 33 405 59 416 q 85 427 110 436 q 135 445 155 451 q 175 457 184 457 q 191 457 196 455 q 201 452 204 446 q 207 440 208 429 q 209 418 209 401 q 209 393 208 379 q 207 366 206 353 q 234 383 259 403 q 284 423 307 435 q 329 447 349 452 q 370 457 390 457 q 408 457 420 450 q 433 443 441 432 q 449 421 453 406 q 456 391 456 375 q 456 372 456 368 q 456 364 455 358 q 483 386 507 406 q 531 425 551 436 q 572 447 590 452 q 608 457 627 457 q 641 457 654 452 q 667 448 676 438 q 685 427 690 411 q 696 395 696 371 q 696 353 693 329 q 690 305 686 280 q 681 254 676 228 q 671 201 667 177 q 662 153 659 133 q 656 113 656 99 q 656 83 661 77 q 666 71 674 71 q 688 71 701 75 q 713 79 733 86 z"},"#":{"x_min":0,"x_max":455,"ha":455,"o":"m 410 477 l 480 477 l 490 464 q 488 459 484 451 q 480 442 476 434 q 472 425 468 417 q 463 410 461 406 l 382 406 l 338 295 l 410 295 l 418 282 q 417 277 413 269 q 409 261 405 253 q 401 244 397 237 q 393 229 391 225 l 311 225 l 255 83 q 250 80 243 77 q 236 74 228 71 l 211 66 q 204 64 197 62 l 187 72 l 247 225 l 167 225 l 112 83 q 107 80 100 77 q 93 74 84 71 l 68 66 q 61 64 54 62 l 44 72 l 104 225 l 29 225 l 21 237 q 22 242 26 250 q 30 257 34 266 q 38 274 42 282 q 46 291 49 295 l 132 295 l 175 406 l 101 406 l 91 417 q 93 423 97 431 q 101 439 105 448 q 109 456 114 464 q 118 472 120 477 l 203 477 l 256 611 q 262 615 269 617 q 277 620 285 622 q 292 625 300 626 q 307 628 312 631 l 324 620 l 268 477 l 346 477 l 399 611 q 405 615 412 617 q 420 620 428 622 q 436 625 443 626 q 450 628 456 631 l 467 620 z m 196 295 l 275 295 l 318 406 l 239 406 z"},",":{"x_min":0,"x_max":233,"ha":233,"o":"m 183 57 q 183 37 176 14 q 169 -8 157 -31 q 145 -55 128 -77 q 112 -100 94 -120 q 76 -140 58 -156 q 39 -172 22 -182 l -6 -158 q 31 -118 50 -79 q 69 -40 69 -11 q 69 -2 66 7 q 62 16 56 23 q 49 30 39 34 q 29 38 14 36 l 12 74 q 18 79 28 84 q 38 90 51 96 q 63 102 78 107 q 92 113 105 117 q 119 121 130 124 q 141 126 148 126 q 157 122 164 116 q 170 110 174 102 q 179 94 181 83 q 183 72 183 57 z"},"n":{"x_min":0,"x_max":527,"ha":527,"o":"m 516 54 q 494 41 469 27 q 445 14 422 4 q 399 -7 380 -13 q 361 -20 349 -20 q 332 -20 320 -5 q 309 11 309 37 q 309 46 312 67 q 315 87 319 114 q 324 141 329 171 q 334 202 339 229 q 343 257 346 279 q 349 302 349 312 q 349 341 344 353 q 339 364 323 364 q 317 364 305 360 q 293 356 279 346 q 265 337 250 322 q 234 306 220 283 q 206 260 198 227 q 189 194 181 147 q 177 125 175 109 q 172 92 171 79 q 170 65 170 54 q 169 42 170 31 q 164 27 148 20 q 132 13 114 5 q 97 -2 81 -10 q 65 -17 60 -20 l 40 -1 q 47 31 53 66 q 60 101 65 135 q 71 170 76 202 q 81 235 84 262 q 88 290 90 310 q 92 331 92 343 q 92 354 91 361 q 89 367 87 370 q 84 374 81 375 q 78 375 73 375 q 69 375 61 374 q 53 372 45 369 q 36 366 25 363 l 16 396 q 36 405 63 416 q 90 427 116 436 q 141 445 161 451 q 182 457 189 457 q 196 457 200 455 q 205 453 207 447 q 210 441 211 430 q 212 419 212 402 q 212 392 211 378 q 210 365 208 353 q 262 406 313 432 q 365 457 409 457 q 424 457 437 454 q 449 451 457 442 q 465 433 469 418 q 474 403 474 379 q 474 362 470 339 q 467 315 463 289 q 458 262 453 234 q 447 206 443 181 q 438 155 435 134 q 432 113 432 99 q 432 83 437 76 q 441 70 450 70 q 461 70 472 74 q 483 78 503 86 z"},"h":{"x_min":0,"x_max":525,"ha":525,"o":"m 512 54 q 489 41 465 27 q 440 14 417 4 q 394 -7 374 -13 q 354 -20 341 -20 q 327 -20 315 -5 q 304 11 304 37 q 304 46 307 67 q 310 87 314 114 q 319 141 324 171 q 329 202 333 229 q 337 257 340 279 q 343 302 343 312 q 343 328 342 338 q 340 348 337 354 q 334 360 330 362 q 325 364 319 364 q 312 364 301 360 q 289 356 275 347 q 260 338 244 323 q 229 308 215 284 q 201 261 192 226 q 183 191 176 147 q 171 120 169 102 q 167 83 166 70 q 165 57 164 48 q 164 39 165 31 q 158 27 143 20 q 127 13 109 5 q 92 -2 76 -10 q 61 -17 55 -20 l 35 -1 q 39 25 45 62 q 52 100 59 144 q 66 188 74 237 q 82 286 90 335 q 97 383 104 429 q 110 475 115 514 q 121 553 124 583 q 126 612 126 628 q 126 639 125 646 q 123 652 120 656 q 118 659 114 660 q 110 661 106 661 q 102 661 93 658 q 84 656 76 654 q 65 651 54 647 l 46 681 q 66 690 93 701 q 119 711 144 721 q 169 730 190 736 q 211 742 220 742 q 234 742 243 733 q 252 725 252 702 q 252 690 250 665 q 247 640 242 607 q 238 574 232 537 q 227 500 221 465 q 216 430 211 400 q 207 371 204 353 q 261 410 311 433 q 362 457 405 457 q 420 457 432 454 q 444 450 452 441 q 460 433 464 417 q 468 402 468 378 q 468 361 465 338 q 462 314 458 288 q 453 261 448 234 q 443 206 438 181 q 434 155 431 134 q 428 113 428 99 q 428 83 432 76 q 437 70 445 70 q 459 70 470 74 q 481 79 499 86 z"},"z":{"x_min":0,"x_max":383,"ha":383,"o":"m 383 427 q 356 398 335 372 q 313 346 295 321 q 276 296 260 271 q 243 246 224 220 q 206 193 186 164 q 165 135 139 103 q 146 104 152 106 q 158 108 165 109 q 172 110 179 110 q 189 110 204 106 q 219 102 235 97 q 251 92 267 88 q 283 84 295 84 q 300 84 306 86 q 312 87 318 93 q 325 98 333 109 q 341 120 351 137 l 379 120 q 366 90 354 66 q 341 42 327 25 q 313 8 296 -1 q 279 -10 255 -10 q 233 -10 213 -5 q 192 0 173 7 q 153 13 137 18 q 120 23 107 23 q 92 23 69 13 q 46 3 9 -15 l -9 9 q 16 39 40 71 q 64 104 87 136 q 111 169 133 201 q 155 233 175 262 q 195 291 212 314 q 229 338 244 355 l 131 355 q 119 355 110 353 q 102 350 94 343 q 87 335 81 322 q 74 309 67 289 l 35 296 q 40 318 45 342 q 51 366 57 388 q 62 410 66 428 q 70 447 72 457 q 82 455 98 451 q 114 447 131 447 l 369 447 z"},"B":{"x_min":0,"x_max":532,"ha":532,"o":"m 500 200 q 500 152 480 113 q 459 73 424 45 q 389 17 341 1 q 294 -15 240 -15 q 230 -15 216 -15 q 201 -14 184 -13 q 167 -12 149 -10 q 130 -9 113 -8 q 71 -4 25 0 l -4 0 l -1 36 q 30 42 47 51 q 63 59 64 65 l 135 570 q 115 568 98 565 q 81 562 65 558 l 65 599 q 111 612 170 621 q 229 630 297 630 q 397 630 447 597 q 497 565 497 508 q 497 457 466 416 q 434 375 375 353 q 402 349 425 336 q 448 322 465 302 q 481 281 491 255 q 500 229 500 200 z m 268 310 q 247 310 235 308 q 223 306 211 303 l 178 65 q 176 61 185 55 q 201 46 220 43 q 240 41 260 41 q 289 41 311 52 q 333 63 349 82 q 364 102 372 127 q 380 153 380 183 q 380 208 374 230 q 369 253 355 271 q 342 288 321 299 q 299 310 268 310 z m 276 578 l 262 578 q 256 578 249 578 l 219 361 l 235 361 q 261 361 286 368 q 312 375 332 389 q 352 403 365 426 q 377 449 377 482 q 377 509 367 527 q 358 546 343 557 q 329 568 311 573 q 293 578 276 578 z"},"K":{"x_min":0,"x_max":588,"ha":588,"o":"m 313 580 q 282 573 265 564 q 248 556 247 549 l 216 322 l 416 536 q 428 549 433 557 q 438 565 437 569 q 435 574 425 576 q 416 578 398 580 l 403 615 l 606 615 l 602 580 q 586 578 576 576 q 565 574 557 571 q 549 567 542 562 q 535 557 527 549 l 302 330 l 474 99 q 480 91 490 87 q 500 83 513 83 q 525 83 539 87 q 553 90 566 96 l 580 62 q 564 49 543 37 q 521 24 500 15 q 479 5 459 -1 q 440 -7 430 -7 q 416 -7 406 -2 q 396 3 388 17 l 213 305 l 181 65 q 180 60 193 51 q 207 42 239 36 l 234 0 l -4 0 l 1 36 q 33 42 50 51 q 66 59 67 65 l 134 549 q 135 555 121 564 q 107 573 76 580 l 81 615 l 318 615 z"},"R":{"x_min":0,"x_max":559,"ha":559,"o":"m 274 578 q 269 578 263 578 q 257 578 251 578 l 219 344 q 231 340 242 339 q 253 338 266 338 q 292 338 315 346 q 339 354 357 370 q 375 385 386 408 q 397 431 397 460 q 397 496 385 519 q 374 542 356 555 q 338 568 316 573 q 295 578 274 578 z m 566 57 q 547 44 525 33 q 502 21 482 12 q 461 3 445 -2 q 428 -7 422 -7 q 414 -7 406 -5 q 397 -2 389 4 q 381 11 373 24 q 365 37 357 57 l 270 284 q 256 284 240 285 q 225 287 212 290 l 182 65 q 180 60 196 51 q 211 42 242 36 l 237 0 l -4 0 l 1 36 q 32 42 49 51 q 65 59 66 65 l 134 567 q 116 564 98 561 q 81 558 65 555 l 65 599 q 87 605 114 611 q 141 617 171 621 q 201 625 233 627 q 266 630 299 630 q 350 630 390 620 q 430 610 458 590 q 485 570 500 541 q 514 512 514 474 q 514 450 504 424 q 493 397 473 372 q 453 347 424 327 q 395 306 356 295 l 464 104 q 472 92 479 86 q 486 80 496 79 q 506 78 520 81 q 534 84 554 90 z"},"T":{"x_min":0,"x_max":542,"ha":542,"o":"m 370 0 l 116 0 l 120 36 q 142 40 156 45 q 170 50 179 54 q 188 59 191 63 q 195 67 196 71 l 262 557 l 148 557 q 141 557 135 552 q 128 546 120 534 q 112 522 102 502 q 91 483 77 455 l 46 468 q 49 481 53 502 q 58 522 64 543 q 69 564 75 583 q 80 603 84 615 l 568 615 l 583 600 q 581 587 576 569 q 572 551 567 531 q 562 512 557 493 q 551 474 547 459 l 513 459 q 512 482 511 500 q 510 519 508 531 q 506 543 501 550 q 496 557 486 557 l 375 557 l 309 71 q 309 68 311 64 q 314 60 321 55 q 329 50 342 45 q 355 40 375 36 z"},"P":{"x_min":0,"x_max":519,"ha":519,"o":"m 531 460 q 531 418 513 381 q 496 344 465 315 q 434 287 393 271 q 353 254 307 254 q 288 254 269 259 q 250 263 237 271 l 229 321 q 245 314 259 310 q 272 305 289 305 q 318 305 341 315 q 364 324 380 342 q 396 359 405 385 q 413 410 413 442 q 413 483 401 509 q 389 536 369 551 q 349 566 322 572 q 296 578 268 578 l 260 578 q 256 578 252 578 l 181 65 q 180 62 183 59 q 186 56 194 52 q 203 48 217 44 q 232 40 255 36 l 250 0 l -4 0 l 1 36 q 32 42 48 51 q 65 59 66 65 l 135 567 q 118 564 101 561 q 83 558 65 554 l 65 598 q 89 605 117 611 q 146 617 175 621 q 204 625 234 628 q 264 630 292 630 q 348 630 393 619 q 438 608 468 587 q 499 565 515 534 q 531 502 531 460 z"},"|":{"x_min":0,"x_max":215,"ha":215,"o":"m 94 -134 q 89 -137 81 -142 q 73 -146 64 -150 q 55 -155 46 -158 q 38 -162 32 -164 l 14 -148 l 141 751 q 155 760 172 768 q 189 777 203 781 l 221 767 z"},"t":{"x_min":0,"x_max":338,"ha":338,"o":"m 324 76 q 297 54 270 37 q 243 19 219 7 q 194 -6 174 -13 q 153 -20 140 -20 q 125 -20 110 -13 q 95 -5 83 8 q 71 21 64 39 q 57 57 57 78 q 57 87 57 97 q 57 106 58 116 q 59 126 60 137 q 61 148 63 162 l 99 383 l 33 383 l 21 402 l 80 442 l 108 442 l 111 459 q 114 479 117 490 q 120 502 124 509 q 128 516 133 520 q 138 523 145 528 l 238 574 l 251 562 q 248 558 244 546 q 240 537 236 519 q 231 500 227 470 l 222 442 l 340 442 l 354 425 q 349 418 339 408 q 330 398 319 389 q 309 379 300 372 q 291 364 286 361 q 280 375 263 379 q 246 383 215 383 l 213 383 l 185 207 q 184 198 182 187 q 181 177 180 167 q 180 158 179 149 q 179 141 179 136 q 179 106 188 93 q 197 81 211 81 q 228 81 251 88 q 274 95 311 112 z"},"M":{"x_min":0,"x_max":784,"ha":784,"o":"m 797 580 q 786 580 770 576 q 754 573 737 566 l 675 65 q 674 60 689 51 q 705 42 737 36 l 732 0 l 497 0 l 502 36 q 533 42 552 51 q 571 59 572 65 l 622 466 l 366 0 l 324 0 l 197 466 l 138 65 q 137 60 151 51 q 165 42 196 36 l 192 0 l 3 0 l 7 36 q 40 42 56 51 q 73 59 74 65 l 146 563 q 132 573 116 576 q 100 580 87 580 l 92 615 l 249 615 q 253 615 256 614 q 260 612 263 608 q 266 604 269 595 q 271 587 275 574 l 387 168 l 610 574 q 618 588 623 596 q 628 604 633 609 q 637 613 640 614 q 644 615 648 615 l 801 615 z"},"g":{"x_min":0,"x_max":469,"ha":469,"o":"m 461 425 q 444 412 435 392 q 425 372 421 336 q 414 278 411 233 q 408 188 406 148 q 404 109 401 73 q 398 38 392 0 q 386 -33 371 -64 q 357 -96 336 -123 q 316 -150 291 -173 q 267 -195 240 -211 q 213 -227 185 -235 q 158 -244 132 -244 q 108 -244 83 -239 q 57 -233 37 -225 q 16 -217 3 -207 q -10 -198 -10 -189 q -10 -184 -5 -175 q -1 -167 6 -158 q 13 -149 21 -140 q 29 -130 36 -123 q 44 -116 50 -112 q 56 -107 58 -107 q 63 -107 72 -115 q 80 -124 94 -134 q 107 -144 128 -152 q 148 -161 177 -161 q 195 -161 210 -154 q 226 -148 238 -132 q 250 -117 260 -90 q 270 -64 277 -23 q 284 18 287 51 q 290 85 291 117 q 271 88 251 63 q 231 38 210 20 q 189 1 168 -10 q 147 -20 126 -20 q 110 -20 91 -11 q 71 -1 54 19 q 37 39 26 71 q 14 103 14 149 q 14 227 51 295 q 88 363 161 411 q 188 429 224 443 q 261 457 305 457 q 324 457 344 447 q 365 436 383 424 q 400 435 416 443 l 444 457 z m 176 76 q 182 76 193 83 q 204 89 219 105 q 234 121 253 146 q 272 171 295 209 q 297 235 300 264 q 303 293 308 328 q 310 339 314 349 q 298 364 281 376 q 265 388 249 388 q 229 388 211 378 q 194 368 181 352 q 167 336 157 315 q 146 294 140 272 q 133 250 129 227 q 126 204 126 185 q 126 130 140 103 q 155 76 176 76 z"},"j":{"x_min":0,"x_max":275,"ha":275,"o":"m 222 425 q 222 419 220 406 q 219 393 217 375 q 215 356 213 336 q 211 315 209 295 q 207 275 205 259 q 203 242 202 231 q 198 197 193 151 q 188 104 179 43 q 171 -5 155 -43 q 139 -82 119 -111 q 100 -141 78 -162 q 56 -184 36 -200 q 9 -221 -24 -232 q -57 -244 -85 -244 q -105 -244 -125 -239 q -145 -233 -160 -225 q -175 -217 -184 -209 q -193 -201 -193 -196 q -193 -190 -185 -176 q -176 -163 -164 -149 q -152 -135 -141 -125 q -130 -114 -125 -114 q -120 -114 -111 -122 q -102 -129 -90 -138 q -79 -147 -64 -154 q -49 -162 -32 -162 q -12 -162 1 -153 q 14 -144 24 -124 q 33 -104 41 -72 q 48 -41 55 5 q 61 42 66 74 q 70 107 74 135 q 78 163 80 184 q 83 206 84 220 q 85 232 87 250 q 89 267 90 285 q 92 303 93 318 q 94 334 94 342 q 94 353 92 360 q 91 366 88 369 q 85 373 82 374 q 78 375 74 375 q 69 375 62 373 q 54 371 47 369 q 38 366 29 363 l 20 396 q 40 405 66 416 q 92 426 117 436 q 142 445 162 451 q 182 457 190 457 q 204 457 213 451 q 222 445 222 425 z m 261 616 q 261 603 256 588 q 250 573 239 561 q 228 549 212 541 q 196 533 175 533 q 149 533 137 545 q 125 558 125 574 q 125 587 131 602 q 137 617 148 629 q 159 642 175 650 q 191 658 211 658 q 237 658 249 646 q 261 633 261 616 z"},"i":{"x_min":0,"x_max":277,"ha":277,"o":"m 263 54 q 240 40 216 27 q 192 14 170 3 q 147 -7 128 -14 q 109 -20 95 -20 q 79 -20 67 -5 q 56 11 56 37 q 56 52 59 77 q 62 102 67 131 q 72 161 78 193 q 84 226 89 255 q 94 284 97 307 q 101 330 101 342 q 101 353 99 360 q 98 366 95 369 q 93 373 89 374 q 85 375 81 375 q 77 375 69 373 q 62 371 54 369 q 45 366 36 363 l 27 396 q 47 405 73 416 q 99 426 124 436 q 148 445 168 451 q 188 457 198 457 q 211 457 219 448 q 227 438 227 416 q 227 402 223 377 q 220 352 214 321 q 209 291 203 258 q 197 225 191 194 q 186 164 183 138 q 179 113 179 99 q 179 84 182 77 q 186 70 194 70 q 201 70 208 71 q 214 72 221 74 q 228 76 236 79 q 243 82 253 86 z m 274 616 q 274 603 268 588 q 263 573 252 561 q 241 549 225 541 q 209 533 188 533 q 162 533 150 545 q 138 558 138 574 q 138 587 144 602 q 149 617 160 629 q 171 642 187 650 q 203 658 224 658 q 250 658 262 646 q 274 633 274 616 z"},"y":{"x_min":0,"x_max":478,"ha":478,"o":"m 469 420 q 469 403 456 369 q 443 334 420 285 q 397 236 365 174 q 333 112 295 40 q 261 -23 228 -75 q 195 -127 161 -165 q 126 -203 89 -223 q 51 -244 8 -244 q -11 -244 -29 -240 q -48 -235 -62 -228 q -77 -221 -86 -214 q -96 -207 -96 -201 q -96 -194 -88 -180 q -80 -166 -69 -150 q -58 -135 -46 -123 q -35 -110 -28 -107 q -4 -129 19 -139 q 42 -150 61 -150 q 88 -150 118 -121 q 147 -92 180 -39 q 175 -10 167 25 q 160 60 151 96 q 143 133 133 169 q 124 205 114 237 q 105 269 96 294 q 87 319 81 334 q 69 359 62 367 q 54 375 45 375 q 41 375 33 373 q 25 371 17 369 q 8 366 -2 363 l -12 396 q 10 406 33 417 q 57 428 77 437 q 98 446 115 451 q 131 457 140 457 q 154 457 164 443 q 174 429 186 395 q 195 371 205 339 q 214 307 224 270 q 234 233 244 193 q 254 153 263 112 q 283 152 301 191 q 318 230 332 263 q 345 296 353 321 q 361 345 361 357 q 361 381 335 383 q 327 384 318 381 q 309 378 294 372 l 282 404 q 299 415 319 424 q 339 434 359 441 q 378 448 396 453 q 413 457 425 457 q 434 457 441 456 q 449 455 456 451 q 462 447 466 439 q 469 432 469 420 z"},"@":{"x_min":0,"x_max":828,"ha":828,"o":"m 462 173 q 464 194 469 220 q 473 246 477 272 q 481 298 486 322 q 490 345 493 361 q 480 372 467 380 q 454 388 440 388 q 420 388 404 378 q 388 368 375 352 q 363 336 353 315 q 344 294 337 272 q 331 250 328 227 q 325 204 325 185 q 325 158 329 137 q 333 117 339 103 q 345 90 352 83 q 359 76 367 76 q 382 76 407 101 q 431 125 462 173 z m 791 268 q 785 226 769 188 q 752 150 729 118 q 706 86 679 61 q 651 35 624 17 q 596 -1 571 -10 q 545 -20 526 -20 q 519 -20 509 -15 q 499 -11 490 1 q 480 14 472 35 q 464 57 461 91 q 448 70 432 50 q 416 30 397 15 q 379 -1 361 -10 q 342 -20 325 -20 q 309 -20 289 -11 q 270 -1 253 19 q 236 39 225 71 q 214 103 214 149 q 214 188 223 224 q 232 261 250 295 q 268 329 294 358 q 321 388 355 411 q 369 420 386 428 q 404 437 422 443 q 441 449 459 453 q 478 457 494 457 q 514 457 532 448 q 551 439 567 430 q 583 438 599 444 q 614 451 627 457 l 643 425 q 634 418 629 413 q 623 408 619 401 q 614 394 611 383 q 608 373 604 356 q 597 321 591 288 q 585 255 581 228 q 577 200 575 179 q 573 158 573 147 q 573 111 582 95 q 590 79 602 79 q 614 79 627 90 q 640 101 651 123 q 663 144 673 176 q 683 208 689 249 q 701 332 688 393 q 674 455 641 496 q 609 537 562 558 q 515 578 460 578 q 420 578 383 566 q 346 553 313 531 q 280 509 253 478 q 226 447 204 410 q 183 374 169 332 q 154 290 148 246 q 140 187 146 138 q 152 89 170 50 q 188 10 215 -19 q 242 -48 275 -68 q 309 -87 347 -97 q 385 -107 424 -107 q 464 -107 502 -97 q 541 -86 575 -71 q 609 -56 635 -40 q 662 -23 678 -11 l 693 -56 q 674 -75 644 -97 q 614 -119 574 -138 q 535 -157 487 -170 q 439 -183 386 -183 q 330 -183 280 -170 q 229 -157 187 -132 q 145 -107 112 -72 q 79 -36 58 10 q 38 55 31 110 q 23 165 32 227 q 40 282 61 335 q 82 388 113 435 q 145 481 187 521 q 228 561 277 590 q 327 619 382 635 q 438 651 498 651 q 567 651 626 625 q 686 600 727 551 q 768 502 786 431 q 804 359 791 268 z"},".":{"x_min":0,"x_max":233,"ha":233,"o":"m 171 82 q 171 65 166 48 q 160 31 148 17 q 136 3 119 -6 q 103 -15 81 -15 q 50 -15 36 0 q 21 16 21 41 q 21 56 28 73 q 34 89 46 103 q 58 117 75 126 q 92 135 113 135 q 142 135 157 120 q 171 105 171 82 z"},"p":{"x_min":0,"x_max":500,"ha":500,"o":"m 305 371 q 297 371 282 363 q 268 355 251 340 q 234 324 217 302 q 199 280 183 251 q 179 227 175 200 q 170 173 165 141 q 173 129 186 117 q 198 106 212 97 q 227 88 241 83 q 256 78 268 78 q 289 78 305 90 q 322 102 331 122 q 343 148 348 184 q 354 220 354 256 q 354 282 349 303 q 345 325 338 340 q 332 354 323 363 q 314 371 305 371 z m 207 425 q 207 405 199 356 q 226 387 249 407 q 271 427 291 438 q 311 449 328 453 q 346 457 362 457 q 383 457 403 447 q 422 438 437 418 q 452 399 460 371 q 469 343 469 306 q 469 277 464 247 q 458 217 450 187 q 441 158 429 130 q 417 103 403 81 q 392 62 378 44 q 364 26 347 12 q 331 -2 312 -11 q 293 -20 273 -20 q 261 -20 246 -13 q 231 -7 215 5 q 200 17 184 34 q 167 51 153 71 l 142 3 q 133 -47 128 -83 q 124 -119 121 -142 q 119 -166 120 -180 q 120 -193 123 -200 q 115 -202 99 -208 q 83 -214 65 -221 q 47 -228 31 -235 q 16 -241 9 -244 l -10 -227 q -8 -212 -3 -184 q 1 -156 8 -118 q 15 -80 23 -36 q 31 9 40 55 q 48 101 55 145 q 63 190 69 229 q 75 267 78 297 q 82 326 82 342 q 82 353 80 360 q 78 366 75 369 q 71 373 67 374 q 63 375 59 375 q 55 375 47 373 q 39 371 32 369 q 23 366 14 363 l 5 396 q 26 406 53 417 q 80 428 105 437 q 130 445 151 451 q 171 457 180 457 q 193 457 200 450 q 207 444 207 425 z"},"X":{"x_min":0,"x_max":592,"ha":592,"o":"m 546 0 l 305 0 l 310 36 q 330 38 343 41 q 355 44 362 49 q 368 53 367 60 q 367 67 362 77 l 278 246 l 151 77 q 143 66 141 59 q 138 52 143 47 q 147 42 159 40 q 170 37 191 36 l 186 0 l -17 0 l -12 36 q 18 38 39 48 q 61 57 75 77 l 247 308 l 132 539 q 126 549 121 556 q 116 563 109 567 q 102 572 92 574 q 82 577 67 580 l 72 615 l 316 615 l 312 580 q 272 576 260 568 q 247 560 257 539 l 331 390 l 438 539 q 445 550 448 557 q 450 564 445 569 q 441 573 429 576 q 417 578 397 580 l 402 615 l 607 615 l 602 580 q 585 578 572 575 q 559 572 549 567 q 538 562 530 556 q 521 549 514 539 l 361 330 l 488 77 q 493 66 499 59 q 504 52 512 48 q 519 43 528 40 q 538 38 551 36 z"},"*":{"x_min":0,"x_max":362,"ha":362,"o":"m 217 596 l 328 686 l 339 675 q 347 668 355 660 q 364 652 371 645 q 378 638 381 634 l 374 606 l 234 555 l 349 508 q 348 502 345 490 q 342 479 339 466 q 335 453 332 442 q 328 431 326 425 l 301 416 l 207 512 l 211 376 q 206 373 195 368 q 184 364 172 359 q 161 354 150 351 q 139 347 134 346 l 117 363 l 162 512 l 51 422 q 46 425 39 432 q 31 439 22 447 q 14 455 7 462 q 0 470 -3 474 l 5 501 l 145 553 l 29 600 l 34 617 q 37 629 40 642 q 43 654 47 666 q 50 677 52 682 l 77 692 l 171 595 l 167 731 q 173 734 183 739 q 194 744 206 748 q 217 753 228 757 q 239 761 244 762 l 262 745 z"},"Y":{"x_min":0,"x_max":571,"ha":571,"o":"m 392 0 l 136 0 l 141 36 q 162 40 176 45 q 190 50 199 54 q 208 59 212 63 q 216 67 216 71 l 242 260 q 232 298 218 339 q 203 380 188 419 q 172 458 156 491 q 140 524 126 548 q 123 554 119 558 q 115 562 107 565 q 100 567 88 568 q 77 569 58 569 l 60 604 q 73 607 91 610 q 109 613 126 615 q 144 618 160 619 q 175 621 185 621 q 196 621 208 615 q 219 609 226 598 q 239 574 254 541 q 270 509 284 473 q 298 437 311 400 q 324 363 333 331 l 469 547 q 477 561 467 568 q 457 575 422 580 l 427 615 l 616 615 l 611 580 q 596 577 584 573 q 572 570 564 567 q 556 563 550 558 q 544 554 540 547 l 355 255 l 330 71 q 329 68 332 64 q 334 60 342 55 q 350 50 363 45 q 376 40 396 36 z"},"c":{"x_min":0,"x_max":426,"ha":426,"o":"m 442 402 q 432 392 418 379 q 404 366 389 354 q 375 342 361 334 q 348 327 340 327 q 333 327 324 336 q 316 346 307 357 q 297 369 286 378 q 274 388 260 388 q 234 388 213 370 q 192 352 178 323 q 165 294 157 259 q 150 224 150 189 q 150 158 155 133 q 160 108 170 91 q 179 74 192 65 q 205 56 220 56 q 247 56 283 75 q 320 94 373 137 q 375 135 378 130 q 382 125 386 119 q 390 114 393 109 q 396 104 397 103 q 359 68 327 44 q 295 21 268 6 q 241 -8 218 -14 q 194 -20 172 -20 q 152 -20 128 -12 q 104 -3 83 17 q 62 38 48 72 q 35 106 35 157 q 35 190 42 224 q 48 257 64 289 q 79 321 104 351 q 128 380 165 404 q 178 413 196 422 q 214 432 235 439 q 255 447 277 452 q 298 457 319 457 q 340 457 357 450 q 375 443 389 434 q 403 424 416 415 q 429 406 442 402 z"},"!":{"x_min":0,"x_max":233,"ha":233,"o":"m 171 82 q 171 65 166 48 q 160 31 148 17 q 136 3 119 -6 q 103 -15 81 -15 q 50 -15 36 0 q 21 16 21 41 q 21 56 28 73 q 34 89 46 103 q 58 117 75 126 q 92 135 113 135 q 142 135 157 120 q 171 105 171 82 z m 146 201 q 137 194 122 188 q 108 182 96 178 l 84 188 l 111 645 q 121 651 136 659 q 152 667 169 675 q 187 684 202 691 q 218 698 228 701 l 249 686 z"},"/":{"x_min":0,"x_max":434,"ha":434,"o":"m 50 -132 q 45 -135 33 -140 q 21 -145 8 -149 q -6 -154 -18 -158 q -31 -162 -37 -164 l -54 -148 l 384 750 q 391 754 402 759 q 413 763 425 768 q 438 772 449 775 q 460 779 468 781 l 487 767 z"},"[":{"x_min":0,"x_max":354,"ha":354,"o":"m 402 765 q 401 759 397 751 q 394 743 390 735 q 386 727 383 721 q 379 714 377 711 l 250 711 l 139 -93 l 264 -93 l 281 -111 q 280 -116 277 -123 q 273 -130 270 -138 q 266 -146 263 -153 q 259 -160 257 -164 l 24 -164 l 157 781 l 386 781 z"},"6":{"x_min":0,"x_max":455,"ha":455,"o":"m 240 314 q 220 314 197 301 q 174 287 150 262 q 147 242 146 222 q 145 203 145 182 q 145 146 151 120 q 156 95 167 79 q 177 63 191 56 q 205 48 221 48 q 237 48 250 56 q 262 64 272 78 q 281 92 288 109 q 295 127 299 146 q 303 164 305 183 q 307 202 307 217 q 307 247 301 266 q 295 285 285 296 q 276 307 264 311 q 252 314 240 314 z m 427 566 q 371 556 327 534 q 284 512 252 482 q 220 452 199 414 q 177 376 165 333 q 195 358 225 371 q 254 383 281 383 q 313 383 339 373 q 365 362 384 342 q 402 323 412 296 q 421 269 421 236 q 421 209 415 180 q 408 151 395 124 q 381 96 362 71 q 343 45 319 26 q 294 7 264 -4 q 234 -15 200 -15 q 164 -15 133 -1 q 102 13 78 38 q 55 63 41 98 q 28 133 28 176 q 28 229 39 279 q 51 330 73 375 q 96 421 129 460 q 163 500 206 531 q 250 562 304 582 q 357 603 421 610 z"},"r":{"x_min":0,"x_max":408,"ha":408,"o":"m 436 415 q 432 410 426 400 q 420 391 413 379 q 406 368 399 356 q 392 344 385 334 q 379 325 374 319 q 368 312 365 312 q 356 312 348 318 q 339 324 332 331 q 324 338 317 344 q 310 350 302 350 q 290 350 274 338 q 258 326 243 304 q 227 282 213 252 q 199 222 188 187 q 178 150 172 110 q 165 70 167 31 q 159 27 143 20 q 126 13 109 5 q 92 -2 77 -10 q 62 -17 56 -20 l 37 -1 q 47 51 57 103 q 66 154 73 200 q 80 246 84 283 q 88 320 88 342 q 88 353 86 360 q 84 366 82 369 q 79 373 75 374 q 72 375 68 375 q 63 375 55 373 q 48 371 40 369 q 31 366 21 363 l 13 396 q 33 405 60 416 q 86 426 111 436 q 136 445 156 451 q 177 457 186 457 q 192 457 197 455 q 201 453 204 447 q 207 441 208 432 q 208 423 208 408 q 208 403 208 394 q 207 385 206 374 q 204 363 203 352 q 201 340 200 331 q 223 370 244 394 q 264 419 282 433 q 300 447 317 452 q 333 457 349 457 q 357 457 368 452 q 378 447 390 440 q 401 434 413 427 q 425 419 436 415 z"},"2":{"x_min":0,"x_max":455,"ha":455,"o":"m 433 499 q 433 478 428 457 q 422 436 409 410 q 396 384 373 353 q 351 322 316 283 q 282 244 235 195 q 188 146 125 83 l 301 83 q 309 83 315 88 q 322 92 328 99 q 333 106 338 115 q 342 124 346 133 q 354 155 360 183 l 396 173 l 365 0 l 4 0 l -4 36 q 83 125 144 193 q 205 261 243 314 q 281 367 298 407 q 315 446 315 477 q 315 512 300 529 q 284 546 254 546 q 236 546 223 538 q 210 529 202 515 q 194 501 190 484 q 187 466 187 449 q 179 444 166 439 q 153 434 138 430 q 123 425 109 422 q 95 418 84 417 l 73 451 q 76 476 95 503 q 115 530 145 552 q 175 574 214 589 q 252 603 294 603 q 321 603 346 598 q 372 592 391 580 q 410 567 422 548 q 433 528 433 499 z"},"{":{"x_min":0,"x_max":336,"ha":336,"o":"m 385 744 q 365 732 349 718 q 332 704 319 688 q 307 672 298 654 q 290 637 287 619 q 284 593 284 573 q 284 553 285 535 q 286 516 286 496 q 286 476 283 451 q 280 430 271 410 q 261 391 247 373 q 233 356 215 342 q 196 328 176 319 q 220 310 237 276 q 254 242 246 188 q 243 162 237 139 q 231 117 225 96 q 218 75 213 55 q 207 35 204 14 q 201 -6 202 -23 q 202 -39 208 -54 q 214 -68 227 -82 q 240 -95 262 -109 l 239 -154 q 200 -137 170 -120 q 140 -103 120 -82 q 101 -61 93 -34 q 85 -7 90 28 q 93 54 99 74 q 104 95 111 115 q 117 135 123 157 q 129 178 133 206 q 138 246 125 262 q 111 279 82 279 l 73 279 q 70 279 67 279 q 65 278 62 278 q 59 277 52 276 l 50 316 q 103 332 130 358 q 157 385 163 421 q 166 448 166 468 q 166 487 165 506 q 164 524 164 544 q 164 563 167 591 q 172 624 189 651 q 207 679 234 703 q 261 726 296 745 q 331 765 372 781 z"},"9":{"x_min":0,"x_max":455,"ha":455,"o":"m 225 278 q 253 278 276 293 q 300 308 320 330 q 324 370 324 416 q 324 452 319 476 q 314 500 306 515 q 297 529 285 535 q 273 541 259 541 q 231 541 213 525 q 194 510 183 486 q 172 461 167 432 q 163 403 163 376 q 163 348 168 330 q 174 311 183 300 q 192 288 204 283 q 215 278 225 278 z m 443 421 q 443 337 417 262 q 392 187 342 128 q 292 68 218 29 q 144 -10 46 -21 l 40 22 q 99 36 144 57 q 188 79 221 108 q 253 138 275 176 q 296 214 308 261 q 282 237 251 221 q 220 206 185 206 q 150 206 124 218 q 99 230 82 250 q 65 271 57 297 q 49 324 49 354 q 49 383 57 413 q 65 443 80 471 q 95 499 116 522 q 137 546 163 564 q 188 583 219 593 q 249 603 281 603 q 317 603 347 592 q 377 581 398 559 q 419 536 431 502 q 443 467 443 421 z"}," ":{"x_min":0,"x_max":240,"ha":240,"o":""},"I":{"x_min":0,"x_max":309,"ha":309,"o":"m 323 580 q 292 573 274 564 q 257 556 256 549 l 190 65 q 189 60 202 51 q 216 42 248 36 l 243 0 l 6 0 l 11 36 q 42 42 59 51 q 76 59 77 65 l 143 549 q 144 555 131 564 q 117 573 85 580 l 90 615 l 328 615 z"},"H":{"x_min":0,"x_max":638,"ha":638,"o":"m 313 580 q 282 573 265 564 q 248 556 247 549 l 220 352 l 454 352 l 481 549 q 482 555 469 564 q 456 573 424 580 l 428 615 l 666 615 l 661 580 q 629 573 613 564 q 596 556 595 549 l 528 65 q 527 60 541 51 q 555 42 586 36 l 582 0 l 344 0 l 349 36 q 381 42 397 51 q 414 59 415 65 l 446 293 l 211 293 l 181 65 q 180 60 193 51 q 207 42 239 36 l 234 0 l -4 0 l 1 36 q 33 42 50 51 q 66 59 67 65 l 134 549 q 135 555 121 564 q 107 573 76 580 l 81 615 l 318 615 z"},"4":{"x_min":0,"x_max":455,"ha":455,"o":"m 113 232 l 250 232 l 284 479 z m 426 217 q 414 201 399 187 q 384 172 373 164 l 344 164 l 331 65 q 330 62 333 58 q 335 55 342 52 q 348 48 360 44 q 372 40 390 36 l 385 0 l 124 0 l 128 36 q 158 41 177 46 q 197 50 208 54 q 219 59 223 62 q 228 66 228 71 l 241 164 l 27 164 l 11 184 l 281 570 q 292 574 306 579 q 320 583 334 589 q 348 594 362 599 q 375 604 385 608 l 402 587 l 354 232 l 416 232 z"},"~":{"x_min":0,"x_max":480,"ha":480,"o":"m 464 378 q 451 354 433 328 q 415 303 394 281 q 373 260 351 247 q 328 233 307 233 q 288 233 268 245 q 248 257 228 272 q 208 287 188 299 q 168 311 149 311 q 126 311 105 292 q 83 273 59 232 l 37 245 q 50 269 68 295 q 86 320 107 342 q 127 363 150 376 q 172 390 194 390 q 215 390 235 378 q 255 366 275 351 q 295 336 314 324 q 333 312 351 312 q 373 312 395 331 q 417 350 441 390 z"},"D":{"x_min":0,"x_max":590,"ha":590,"o":"m 279 578 q 272 578 265 577 q 257 577 250 576 l 183 79 q 181 65 194 59 q 207 52 244 52 q 278 52 306 65 q 335 78 358 100 q 382 123 400 152 q 417 182 430 215 q 442 249 448 285 q 454 321 454 355 q 454 407 444 448 q 435 490 413 519 q 392 547 359 563 q 326 578 279 578 z m 577 368 q 577 325 567 281 q 557 237 537 196 q 518 155 489 119 q 461 83 425 57 q 388 31 344 15 q 300 0 250 0 l -4 0 l 1 36 q 32 42 48 51 q 65 59 66 65 l 135 566 l 66 556 l 66 602 q 94 608 125 614 q 156 619 187 622 q 217 626 247 628 q 276 630 301 630 q 372 630 424 612 q 476 593 510 559 q 544 525 561 477 q 577 428 577 368 z"},"^":{"x_min":0,"x_max":458,"ha":458,"o":"m 417 310 q 403 299 391 291 q 379 284 363 276 l 348 289 l 270 642 l 109 310 q 104 305 96 300 q 89 295 81 290 q 74 286 67 282 q 60 278 55 276 l 46 289 l 252 714 q 258 720 267 726 q 276 732 285 738 q 294 744 303 749 q 312 753 319 757 z"},"0":{"x_min":0,"x_max":455,"ha":455,"o":"m 321 395 q 321 434 316 461 q 311 489 301 506 q 292 523 280 531 q 268 540 253 540 q 227 540 208 520 q 189 501 176 470 q 163 439 154 400 q 146 362 141 323 q 136 285 134 250 q 132 216 132 193 q 132 118 149 84 q 166 49 202 49 q 225 49 242 66 q 260 83 273 111 q 287 139 296 175 q 305 211 310 249 q 316 288 318 325 q 321 363 321 395 z m 438 383 q 438 310 423 244 q 409 178 372 115 q 355 88 335 64 q 315 41 290 23 q 266 5 237 -5 q 208 -15 176 -15 q 139 -15 109 3 q 80 21 59 51 q 38 82 27 122 q 16 162 16 206 q 16 244 19 278 q 22 312 30 344 q 38 375 50 406 q 62 437 79 469 q 94 497 115 521 q 136 546 161 564 q 186 582 215 593 q 245 603 278 603 q 312 603 341 587 q 371 572 392 543 q 414 515 426 474 q 438 433 438 383 z"},"F":{"x_min":0,"x_max":465,"ha":465,"o":"m 398 342 q 393 333 386 324 q 379 314 373 306 q 366 297 359 290 q 353 282 347 278 q 341 286 333 291 q 326 296 315 299 q 305 302 292 304 q 278 305 260 305 l 213 305 l 180 65 q 180 62 183 59 q 186 56 194 52 q 203 48 217 44 q 231 40 252 36 l 248 0 l -4 0 l 1 36 q 33 42 50 51 q 66 59 67 65 l 134 549 q 135 555 121 564 q 107 573 76 580 l 81 615 l 484 615 l 499 600 q 497 587 492 568 q 488 549 483 529 q 478 509 472 491 q 467 473 463 464 l 428 464 q 433 509 427 533 q 420 557 403 557 l 248 557 l 220 359 l 384 359 z"},"`":{"x_min":0,"x_max":296,"ha":296,"o":"m 282 515 q 272 509 261 504 q 250 499 241 498 l 100 675 l 120 700 q 125 701 140 703 q 154 706 170 709 q 186 712 200 714 q 215 716 221 716 z"},"k":{"x_min":0,"x_max":490,"ha":490,"o":"m 251 692 q 251 673 249 645 q 246 616 241 582 q 236 547 230 507 q 224 467 217 426 q 210 384 203 341 q 196 298 189 258 l 272 320 q 306 345 326 362 q 347 378 352 388 q 356 398 345 402 q 334 405 306 404 l 302 438 q 341 444 380 449 q 419 454 450 454 q 479 454 488 446 q 498 437 498 420 q 498 413 487 400 q 477 388 456 371 q 436 354 407 334 q 378 313 342 291 l 281 253 q 293 240 305 221 q 316 202 328 182 q 339 161 350 141 q 360 122 371 106 q 381 90 391 80 q 401 70 411 70 q 422 70 438 73 q 455 76 474 86 l 489 55 q 473 42 455 28 q 436 15 418 5 q 400 -6 384 -12 q 368 -19 357 -19 q 340 -19 325 -4 q 310 10 295 33 q 280 56 266 85 q 251 113 238 141 q 224 169 211 194 q 198 218 186 233 q 180 197 176 164 q 171 132 169 105 q 166 79 166 60 q 166 41 168 32 q 162 28 146 21 q 129 14 111 6 q 93 -2 77 -10 q 62 -17 56 -20 l 35 -1 q 37 13 42 43 q 46 74 53 115 q 60 156 68 205 q 76 253 84 304 q 92 355 100 405 q 107 454 113 497 q 119 541 123 574 q 126 608 126 626 q 126 639 125 646 q 124 652 121 656 q 118 659 113 660 q 109 661 103 661 q 99 661 91 658 q 83 656 74 654 q 64 651 54 647 l 45 681 q 65 690 93 701 q 120 711 146 721 q 171 730 193 736 q 214 742 223 742 q 229 742 235 741 q 240 739 244 734 q 248 729 250 719 q 251 709 251 692 z"},"u":{"x_min":0,"x_max":538,"ha":538,"o":"m 522 52 q 502 39 483 26 q 463 13 445 3 q 426 -7 410 -14 q 395 -20 383 -20 q 372 -20 361 -13 q 350 -5 341 10 q 332 25 325 48 q 319 71 318 102 q 299 75 278 53 q 256 31 233 15 q 209 -1 186 -11 q 162 -20 140 -20 q 126 -20 111 -12 q 96 -5 83 10 q 70 25 62 48 q 54 70 54 100 q 54 115 56 135 q 59 155 62 178 q 65 201 70 225 q 74 249 78 271 q 81 293 83 311 q 86 330 86 342 q 86 353 84 360 q 83 366 80 369 q 78 373 74 374 q 70 375 66 375 q 62 375 54 373 q 46 371 39 369 q 30 366 20 363 l 12 396 q 32 405 59 416 q 86 426 112 436 q 137 445 158 451 q 179 457 188 457 q 202 457 207 448 q 211 438 211 416 q 211 402 208 379 q 206 356 201 330 q 197 303 192 274 q 187 245 183 218 q 178 191 175 169 q 172 146 172 132 q 172 104 180 90 q 188 76 198 76 q 207 76 219 83 q 232 89 248 104 q 265 119 284 142 q 303 165 325 198 q 328 218 332 238 q 335 259 338 278 q 341 297 344 313 q 346 330 346 342 q 346 353 344 360 q 343 366 341 369 q 338 373 335 374 q 332 375 328 375 q 323 375 316 373 q 309 371 302 369 q 294 366 285 363 l 276 396 q 297 405 323 416 q 349 426 374 436 q 398 445 419 451 q 439 457 448 457 q 461 457 466 448 q 470 438 470 416 q 470 402 468 381 q 465 360 461 336 q 457 312 453 285 q 448 259 444 235 q 440 210 438 188 q 435 166 435 150 q 435 105 442 88 q 449 70 461 70 q 474 70 485 73 q 496 77 513 84 z"},"]":{"x_min":0,"x_max":330,"ha":330,"o":"m 204 -164 l -24 -164 l -42 -146 q -40 -141 -37 -133 q -34 -125 -30 -117 q -26 -109 -23 -103 q -20 -96 -18 -93 l 110 -93 l 224 711 l 100 711 l 82 728 q 83 733 86 741 q 89 748 93 756 q 96 763 99 770 q 103 777 105 781 l 336 781 z"},"U":{"x_min":0,"x_max":619,"ha":619,"o":"m 647 580 q 616 573 601 564 q 586 556 585 549 l 542 250 q 534 186 510 136 q 487 87 453 53 q 419 20 376 2 q 333 -15 285 -15 q 245 -15 208 -3 q 172 9 145 33 q 118 56 102 91 q 85 125 85 170 q 85 196 90 226 l 136 549 q 137 555 124 564 q 110 573 79 580 l 83 615 l 318 615 l 313 580 q 283 573 266 564 q 249 556 248 549 l 205 249 q 203 235 201 221 q 200 207 200 194 q 200 125 230 91 q 259 57 321 57 q 353 57 376 70 q 400 83 417 106 q 435 129 445 161 q 456 192 460 229 l 505 549 q 506 552 503 556 q 500 560 494 564 q 488 568 477 572 q 466 576 451 580 l 456 615 l 652 615 z"},"o":{"x_min":0,"x_max":444,"ha":444,"o":"m 312 235 q 312 272 305 301 q 299 330 288 349 q 278 369 264 379 q 250 389 234 389 q 206 389 186 372 q 167 355 155 328 q 143 302 138 269 q 133 237 133 206 q 133 173 140 144 q 147 115 158 94 q 170 72 185 59 q 199 46 215 46 q 233 46 247 55 q 261 63 272 77 q 283 92 290 111 q 298 129 302 150 q 307 171 309 193 q 312 215 312 235 z m 425 273 q 425 240 417 207 q 409 173 393 142 q 377 110 355 82 q 333 53 306 31 q 293 21 278 11 q 262 2 246 -5 q 229 -12 213 -16 q 196 -20 182 -20 q 144 -20 113 -6 q 83 9 62 34 q 41 59 30 94 q 19 128 19 168 q 19 203 25 236 q 32 269 47 299 q 62 329 84 357 q 107 385 140 410 q 153 420 168 428 q 184 437 200 443 q 217 450 234 453 q 251 457 268 457 q 306 457 335 443 q 365 430 385 405 q 405 381 415 347 q 425 313 425 273 z"},"N":{"x_min":0,"x_max":618,"ha":618,"o":"m 655 580 q 621 575 605 566 q 590 557 589 549 l 511 -15 q 469 -11 444 3 q 419 17 408 39 l 190 450 l 137 65 q 137 62 139 58 q 142 54 148 50 q 155 46 167 42 q 178 38 195 36 l 190 0 l -1 0 l 4 36 q 38 40 53 49 q 68 59 69 65 l 135 544 q 110 574 77 580 l 82 615 l 207 615 q 214 615 219 614 q 224 613 228 609 q 232 605 236 598 q 240 590 247 577 l 468 161 l 521 549 q 522 552 520 556 q 517 561 511 565 q 504 569 493 573 q 481 577 464 580 l 468 615 l 659 615 z"},"+":{"x_min":0,"x_max":400,"ha":400,"o":"m 375 295 q 374 290 370 282 q 366 274 362 266 q 358 258 354 250 q 350 243 348 239 l 233 239 l 216 110 q 211 107 204 104 q 197 102 189 99 q 182 96 174 94 q 167 92 162 91 l 150 105 l 169 239 l 41 239 l 29 255 q 31 260 35 267 q 39 275 42 283 q 46 291 51 298 q 55 305 57 310 l 179 310 l 197 440 q 201 442 208 444 q 215 447 222 449 q 230 452 238 455 q 245 457 250 458 l 262 443 l 243 310 l 363 310 z"},"G":{"x_min":0,"x_max":547,"ha":547,"o":"m 546 267 q 520 259 508 249 q 497 238 495 227 q 493 214 490 193 q 488 173 485 151 q 483 129 480 111 q 478 92 477 83 q 440 53 408 34 q 376 15 349 4 q 322 -7 299 -11 q 276 -15 256 -15 q 211 -15 171 2 q 130 20 98 53 q 67 85 48 133 q 30 180 30 238 q 30 285 40 330 q 51 375 70 416 q 89 457 116 492 q 143 527 175 555 q 196 572 219 586 q 242 600 269 610 q 295 620 325 625 q 356 630 391 630 q 408 630 430 626 q 451 623 472 617 q 494 610 513 601 q 532 592 544 580 q 546 578 544 571 q 541 563 536 553 q 530 543 523 531 q 515 519 508 508 q 500 497 493 489 q 486 480 481 476 l 453 482 q 444 500 433 516 q 422 532 408 543 q 393 555 374 562 q 355 568 331 568 q 309 568 285 557 q 261 545 236 521 q 217 503 201 473 q 184 442 172 406 q 160 370 153 332 q 146 293 146 259 q 146 207 160 170 q 173 132 195 109 q 216 85 242 74 q 269 62 294 62 q 311 62 330 67 q 350 71 367 83 l 387 227 q 388 232 386 237 q 384 242 374 247 q 363 251 342 256 q 321 261 285 267 l 288 303 l 549 303 z"},"q":{"x_min":0,"x_max":468,"ha":468,"o":"m 181 76 q 196 76 223 103 q 250 129 289 185 q 296 228 303 270 q 310 312 317 353 q 302 366 286 377 q 270 388 254 388 q 233 388 216 378 q 199 368 184 352 q 170 336 159 315 q 148 294 141 272 q 133 250 129 227 q 125 204 125 185 q 125 158 130 137 q 135 117 143 103 q 151 90 161 83 q 171 76 181 76 z m 464 425 q 456 418 450 413 q 444 408 439 401 q 435 394 431 383 q 428 373 425 356 q 414 292 404 228 q 393 165 384 106 q 375 48 368 -3 q 361 -54 357 -94 q 354 -135 354 -162 q 354 -189 359 -200 q 354 -202 345 -205 q 336 -208 325 -212 q 313 -217 301 -221 q 289 -226 277 -230 q 266 -235 257 -239 q 249 -242 245 -244 l 224 -227 q 226 -210 230 -179 q 235 -149 241 -109 q 248 -68 255 -20 q 263 28 272 81 q 230 29 197 4 q 163 -20 131 -20 q 114 -20 94 -11 q 74 -1 57 19 q 41 39 30 71 q 19 103 19 149 q 19 188 29 225 q 39 262 58 296 q 77 330 104 359 q 131 389 166 411 q 179 420 197 428 q 215 437 234 443 q 253 449 272 453 q 291 457 306 457 q 327 457 347 447 q 367 438 385 426 q 401 435 418 443 q 434 450 448 457 z"},"d":{"x_min":0,"x_max":497,"ha":497,"o":"m 288 186 q 292 218 299 260 q 306 303 313 350 q 299 364 284 376 q 268 388 250 388 q 229 388 213 378 q 196 368 182 352 q 169 336 159 315 q 149 294 142 272 q 136 250 133 227 q 129 204 129 185 q 129 130 145 103 q 160 76 180 76 q 187 76 197 82 q 208 88 221 101 q 235 114 251 135 q 268 156 288 186 z m 482 51 q 462 37 442 24 q 421 11 404 1 q 386 -8 372 -14 q 357 -20 347 -20 q 339 -20 329 -14 q 318 -8 309 6 q 299 20 292 42 q 285 65 283 98 q 243 41 204 10 q 165 -20 131 -20 q 112 -20 92 -10 q 72 0 56 21 q 40 42 29 75 q 19 108 19 154 q 19 192 28 229 q 38 265 56 298 q 74 331 101 360 q 127 388 162 411 q 176 420 192 428 q 209 436 227 443 q 245 449 264 453 q 283 457 300 457 q 307 457 314 454 q 321 452 329 447 q 333 476 337 503 q 341 530 344 554 q 347 577 348 596 q 350 615 350 628 q 350 639 348 646 q 347 652 344 656 q 340 659 336 660 q 333 661 328 661 q 324 661 316 658 q 308 656 299 654 q 290 651 279 647 l 271 681 q 296 693 323 704 q 349 715 372 724 q 396 732 414 737 q 432 742 441 742 q 458 742 466 733 q 475 725 475 702 q 475 683 472 653 q 468 623 463 586 q 457 549 450 507 q 443 465 435 423 q 428 380 421 339 q 414 298 408 262 q 402 226 399 198 q 396 170 396 153 q 396 112 403 92 q 410 71 421 71 q 434 71 446 74 q 457 77 474 84 z"},"1":{"x_min":0,"x_max":455,"ha":455,"o":"m 376 0 l 34 0 l 39 41 q 75 45 99 51 q 124 56 138 62 q 153 68 160 73 q 167 79 167 84 l 216 444 q 219 464 219 475 q 219 485 215 492 q 212 495 206 497 q 199 499 185 499 q 172 498 151 495 q 130 492 99 485 l 92 525 q 105 528 124 534 q 144 540 166 547 q 188 554 212 563 q 235 571 257 580 q 279 588 297 595 q 315 603 327 608 l 344 587 l 276 84 q 275 80 279 74 q 283 68 295 62 q 307 57 328 51 q 349 45 382 41 z"},"5":{"x_min":0,"x_max":455,"ha":455,"o":"m 445 580 q 439 571 429 559 q 419 547 409 535 q 398 523 388 514 q 378 504 373 500 l 179 500 q 176 485 172 467 q 167 449 162 430 q 157 412 153 396 q 148 379 145 368 q 163 377 190 383 q 217 388 245 388 q 285 388 315 375 q 345 361 365 339 q 384 317 394 290 q 404 262 404 233 q 404 204 397 174 q 391 145 377 117 q 364 89 345 65 q 325 41 299 23 q 273 5 240 -5 q 208 -15 169 -15 q 148 -15 126 -10 q 104 -5 82 5 q 61 15 41 30 q 21 44 3 63 l 31 107 q 53 90 72 79 q 91 68 107 61 q 124 55 139 52 q 155 50 169 50 q 196 50 219 63 q 241 76 257 97 q 273 119 282 148 q 292 177 292 209 q 292 233 285 253 q 278 273 266 287 q 254 301 237 309 q 220 316 198 316 q 162 316 134 305 q 106 293 80 273 l 60 290 q 65 307 73 331 q 80 355 88 383 q 95 411 103 439 q 111 468 117 496 q 124 523 130 547 q 135 571 138 588 l 376 588 q 388 588 398 589 q 408 590 415 592 q 423 594 430 597 z"}}}
